<?xml version="1.0" encoding="UTF-8" standalone="no"?>
<svg version="1.1" xmlns="http://www.w3.org/2000/svg" x="0" y="0" width="2000.0000000000002" height="1242.7373805765958" preserveAspectRatio="xMidYMin meet" viewBox="-5.661829589161199 -5.661829589161199 2000.0000000000002 1242.7373805765958">
<path transform="scale(17.97406218781346, 17.97406218781346) translate(-57.85084348817493, 39.73676363543605)" stroke-linecap="round" stroke-linejoin="round" stroke-width="0.63" stroke="#000" fill="#ff0000" style="stroke-width: 0.63; stroke: #000; fill: #ff0000; fill-opacity: 1;" d="M 85.77672605629499 0.43200000000000005 C 85.77672605629499,0 85.70472605629499,-0.43200000000000005 85.70472605629499,-0.8640000000000001 C 87.432726056295,-1.9440000000000002 89.08872605629499,-3.168 90.456726056295,-4.5360000000000005 C 95.640726056295,-9.936000000000002 92.256726056295,-14.904000000000002 85.200726056295,-12.240000000000002 C 83.83272605629499,-11.664000000000001 82.32072605629499,-11.016000000000002 80.664726056295,-9.936000000000002 C 77.92872605629499,-12.528000000000002 74.47272605629499,-14.256000000000002 71.16072605629499,-14.328000000000001 C 70.80072605629499,-14.328000000000001 70.72872605629499,-13.752000000000002 71.16072605629499,-13.752000000000002 C 74.32872605629498,-13.680000000000001 77.49672605629499,-12.024000000000001 80.01672605629498,-9.504000000000001 C 79.44072605629499,-9.144000000000002 78.93672605629499,-8.712000000000002 78.360726056295,-8.280000000000001 C 76.56072605629498,-6.768000000000001 74.76072605629498,-5.040000000000001 72.96072605629499,-3.0240000000000005 C 72.81672605629498,-2.8800000000000003 72.31272605629499,-1.368 73.176726056295,-2.3760000000000003 C 74.616726056295,-4.104 76.27272605629499,-5.5440000000000005 78.000726056295,-6.912000000000001 C 78.72072605629499,-7.488000000000001 79.65672605629499,-8.136000000000001 80.736726056295,-8.784 C 82.536726056295,-6.696000000000001 83.90472605629499,-4.248 84.480726056295,-1.7280000000000002 C 79.08072605629499,1.584 72.16872605629499,2.664 67.128726056295,0 C 66.26472605629499,-0.43200000000000005 65.47272605629499,-0.9360000000000002 64.82472605629499,-1.584 C 64.60872605629498,-2.9520000000000004 64.53672605629498,-4.464 64.53672605629498,-6.048000000000001 C 64.53672605629498,-10.440000000000001 65.688726056295,-15.408000000000001 67.99272605629498,-20.016000000000002 C 74.47272605629499,-20.808000000000003 81.744726056295,-21.096000000000004 86.85672605629499,-21.096000000000004 C 88.512726056295,-21.096000000000004 88.44072605629499,-22.032000000000004 87.28872605629499,-22.032000000000004 C 82.104726056295,-22.032000000000004 75.26472605629499,-22.248 69.000726056295,-21.888 C 72.384726056295,-27.648000000000003 77.56872605629499,-32.61600000000001 84.55272605629499,-34.48800000000001 C 84.91272605629499,-34.632000000000005 84.69672605629499,-35.136 84.33672605629499,-35.06400000000001 C 76.200726056295,-32.688 70.80072605629499,-27.648000000000003 67.488726056295,-21.816000000000003 C 66.408726056295,-21.744000000000003 65.40072605629499,-21.672000000000004 64.32072605629499,-21.528000000000002 C 69.57672605629499,-30.744000000000003 78.432726056295,-38.160000000000004 90.02472605629498,-36.648 C 91.46472605629499,-36.432 92.47272605629499,-35.928000000000004 93.19272605629499,-35.136 C 92.54472605629499,-34.48800000000001 90.60072605629499,-32.040000000000006 90.384726056295,-30.528000000000002 C 89.736726056295,-26.712000000000003 94.41672605629499,-27.936000000000003 95.49672605629499,-30.744000000000003 C 96.14472605629499,-32.544000000000004 95.640726056295,-34.416000000000004 94.63272605629498,-35.712 C 95.712726056295,-37.080000000000005 96.86472605629498,-38.232000000000006 97.872726056295,-39.02400000000001 C 98.44872605629499,-39.528000000000006 97.80072605629499,-40.032000000000004 97.152726056295,-39.528000000000006 C 96.576726056295,-39.096000000000004 95.35272605629498,-37.87200000000001 94.05672605629499,-36.288000000000004 C 93.12072605629498,-37.224000000000004 91.82472605629499,-37.87200000000001 90.31272605629499,-38.088 C 78.72072605629499,-40.176 66.408726056295,-31.752000000000002 61.15272605629499,-21.744000000000003 L 60.720726056294986 -20.880000000000003 L 59.28072605629499 -20.592000000000002 C 58.12872605629499,-20.232000000000003 57.26472605629499,-18.000000000000004 58.34472605629499,-18.216 C 58.77672605629499,-18.360000000000003 59.208726056294985,-18.504 59.64072605629499,-18.576 C 56.11272605629499,-9.648000000000001 57.98472605629499,-2.016 64.39272605629499,1.2960000000000003 C 68.56872605629499,16.92 85.77672605629499,15.192000000000002 85.77672605629499,0.43200000000000005 Z M 65.54472605629499 1.8000000000000003 C 65.76072605629498,1.9440000000000002 66.04872605629498,2.016 66.26472605629499,2.088 C 71.80872605629499,3.9600000000000004 78.93672605629499,2.8080000000000003 84.62472605629499,-0.28800000000000003 C 84.69672605629499,-0.07200000000000001 84.69672605629499,0.21600000000000003 84.69672605629499,0.43200000000000005 C 84.69672605629499,14.040000000000001 69.64872605629499,16.056 65.54472605629499,1.8000000000000003 Z M 81.456726056295 -9.144000000000002 C 82.82472605629499,-9.936000000000002 84.33672605629499,-10.728000000000002 85.70472605629499,-11.232000000000001 C 91.39272605629499,-13.536000000000001 92.832726056295,-10.944 90.456726056295,-7.344000000000001 C 89.16072605629499,-5.4 87.432726056295,-3.7440000000000007 85.41672605629499,-2.3040000000000003 C 84.768726056295,-4.752000000000001 83.32872605629498,-7.128000000000001 81.456726056295,-9.144000000000002 Z M 63.60072605629499 -2.8800000000000003 C 60.43272605629499,-6.912000000000001 60.21672605629499,-13.032000000000002 62.952726056294985,-18.792 L 63.168726056294986 -19.296000000000003 L 66.48072605629498 -19.8 C 64.39272605629499,-15.264000000000001 63.45672605629499,-10.512 63.45672605629499,-6.336 C 63.45672605629499,-5.112000000000001 63.528726056294985,-3.9600000000000004 63.60072605629499,-2.8800000000000003 Z M 93.84072605629498 -30.024000000000004 C 93.26472605629499,-29.016000000000002 91.53672605629498,-28.152000000000005 91.75272605629499,-29.808000000000003 C 91.896726056295,-31.392000000000003 92.688726056295,-32.904 93.69672605629499,-34.416000000000004 C 94.344726056295,-33.120000000000005 94.488726056295,-31.464000000000002 93.84072605629498,-30.024000000000004 Z M 118.104726056295 -5.5440000000000005 C 117.816726056295,-6.048000000000001 112.84872605629499,-0.6480000000000001 110.328726056295,-1.8000000000000003 C 108.60072605629499,-2.664 109.39272605629499,-10.656 110.760726056295,-14.544000000000002 C 110.760726056295,-14.544000000000002 112.41672605629499,-13.680000000000001 111.33672605629499,-15.984000000000002 C 111.33672605629499,-16.056 111.480726056295,-16.200000000000003 111.480726056295,-16.272000000000002 C 114.14472605629499,-23.112000000000002 117.96072605629499,-29.952000000000005 118.03272605629499,-30.528000000000002 C 118.46472605629499,-33.984 115.36872605629499,-32.61600000000001 112.920726056295,-25.272000000000002 C 111.048726056295,-19.872000000000003 110.040726056295,-17.64 110.040726056295,-17.64 C 101.04072605629499,-22.392000000000003 89.59272605629499,-0.9360000000000002 96.86472605629498,0.28800000000000003 C 99.96072605629499,0.792 107.664726056295,-10.080000000000002 107.664726056295,-9.792000000000002 C 107.664726056295,-9.72 105.72072605629499,-0.8640000000000001 108.16872605629499,0.14400000000000002 C 111.480726056295,1.5120000000000002 118.75272605629499,-4.32 118.104726056295,-5.5440000000000005 Z M 109.536726056295 -16.416 C 109.896726056295,-16.128 103.77672605629499,-6.5520000000000005 99.96072605629499,-2.8800000000000003 C 96.64872605629499,0.36000000000000004 96.14472605629499,-1.5120000000000002 97.512726056295,-5.040000000000001 C 99.60072605629499,-10.152000000000001 106.872726056295,-18.720000000000002 109.536726056295,-16.416 Z M 133.65672605629499 -6.048000000000001 C 134.592726056295,-7.056000000000001 135.312726056295,-8.64 133.51272605629498,-7.056000000000001 C 132.14472605629499,-5.832000000000001 130.776726056295,-4.680000000000001 129.12072605629498,-3.6000000000000005 C 128.97672605629498,-5.472 128.97672605629498,-8.712000000000002 129.04872605629498,-9.792000000000002 C 129.12072605629498,-12.168000000000001 127.96872605629498,-11.520000000000001 126.744726056295,-9.864 C 125.01672605629498,-7.344000000000001 123.00072605629498,-4.392 121.41672605629499,-2.8800000000000003 C 118.104726056295,0.36000000000000004 117.60072605629499,-1.5120000000000002 119.04072605629499,-5.040000000000001 C 120.26472605629499,-8.136000000000001 123.360726056295,-12.456000000000001 126.24072605629499,-14.904000000000002 C 129.91272605629499,-18.072000000000003 133.008726056295,-16.416 131.35272605629498,-13.608000000000002 C 133.008726056295,-13.896 133.296726056295,-16.632 131.496726056295,-17.64 C 128.472726056295,-19.224000000000004 125.08872605629499,-17.856 122.35272605629498,-15.264000000000001 C 116.88072605629499,-10.152000000000001 113.49672605629499,-0.43200000000000005 118.32072605629499,0.28800000000000003 C 121.56072605629498,0.7200000000000001 126.02472605629498,-7.5600000000000005 126.02472605629498,-7.344000000000001 C 126.52872605629499,-6.912000000000001 126.88872605629498,-4.248 127.24872605629498,-2.4480000000000004 C 118.24872605629498,3.168 107.08872605629499,7.776000000000001 100.82472605629499,14.472000000000001 C 97.58472605629498,18.000000000000004 96.93672605629499,22.320000000000004 100.24872605629498,25.632 C 103.92072605629498,29.304000000000002 110.11272605629499,29.520000000000003 114.93672605629499,27.504000000000005 C 117.744726056295,26.352000000000004 120.33672605629499,24.552000000000003 122.49672605629499,22.248 C 128.616726056295,15.696000000000002 130.200726056295,6.264000000000001 129.192726056295,-2.088 C 130.776726056295,-3.0960000000000005 132.360726056295,-4.752000000000001 133.65672605629499,-6.048000000000001 Z M 127.46472605629499 -1.1520000000000001 C 128.688726056295,6.120000000000001 128.040726056295,13.896 122.640726056295,19.728 C 120.33672605629499,22.176000000000002 117.52872605629499,24.048000000000002 114.50472605629498,25.200000000000003 C 110.47272605629499,26.856 103.99272605629498,27.864000000000004 100.75272605629499,24.696 C 98.16072605629498,22.104000000000003 100.03272605629499,18.648000000000003 102.26472605629499,16.272000000000002 C 107.16072605629499,10.944 120.62472605629499,2.9520000000000004 127.46472605629499,-1.1520000000000001 Z M 156.91272605629499 -4.824000000000001 C 156.91272605629499,-4.824000000000001 156.62472605629497,-5.256 156.408726056295,-5.112000000000001 C 156.12072605629498,-4.824000000000001 154.53672605629498,-2.8800000000000003 152.592726056295,-1.8000000000000003 C 149.85672605629497,-0.28800000000000003 148.848726056295,-1.368 148.27272605629497,-4.32 C 148.056726056295,-5.760000000000001 148.128726056295,-7.848000000000001 148.27272605629497,-9.792000000000002 C 148.34472605629497,-12.168000000000001 147.192726056295,-11.520000000000001 145.96872605629497,-9.864 C 144.240726056295,-7.344000000000001 142.22472605629497,-4.392 140.640726056295,-2.8800000000000003 C 137.32872605629498,0.36000000000000004 136.824726056295,-1.5120000000000002 138.192726056295,-5.040000000000001 C 139.48872605629498,-8.136000000000001 142.58472605629498,-12.456000000000001 145.46472605629498,-14.904000000000002 C 149.13672605629498,-18.072000000000003 152.16072605629498,-16.416 150.57672605629497,-13.608000000000002 C 152.23272605629498,-13.896 152.520726056295,-16.632 150.72072605629498,-17.64 C 147.62472605629497,-19.224000000000004 144.312726056295,-17.856 141.50472605629497,-15.264000000000001 C 136.104726056295,-10.152000000000001 132.72072605629498,-0.43200000000000005 137.544726056295,0.28800000000000003 C 140.78472605629497,0.7200000000000001 145.24872605629497,-7.5600000000000005 145.24872605629497,-7.344000000000001 C 145.24872605629497,-7.272000000000001 144.960726056295,-1.008 147.91272605629499,0 C 151.944726056295,1.2960000000000003 156.69672605629498,-4.392 156.91272605629499,-4.824000000000001 Z M 167.78472605629497 -13.824000000000002 C 168.936726056295,-11.592 168.936726056295,-17.064000000000004 165.84072605629498,-17.064000000000004 C 163.82472605629496,-17.136000000000003 159.43272605629497,-12.096000000000002 157.27272605629497,-8.352 C 157.776726056295,-9.432 159.216726056295,-15.336000000000002 159.57672605629497,-16.416 C 160.15272605629497,-18.288000000000004 155.97672605629498,-17.424000000000003 155.83272605629497,-15.552000000000001 C 155.76072605629497,-13.608000000000002 154.60872605629498,-3.24 153.960726056295,-0.5760000000000001 C 153.81672605629498,0.21600000000000003 155.04072605629497,0.43200000000000005 155.25672605629498,-0.43200000000000005 C 155.68872605629497,-1.8720000000000003 156.984726056295,-5.832000000000001 158.85672605629497,-8.712000000000002 C 161.95272605629498,-13.464000000000002 166.05672605629496,-17.28 167.78472605629497,-13.824000000000002 Z" />
</svg>